<mxfile host="Electron" agent="Mozilla/5.0 (Windows NT 10.0; Win64; x64) AppleWebKit/537.36 (KHTML, like Gecko) draw.io/28.0.4 Chrome/138.0.7204.97 Electron/37.2.1 Safari/537.36" version="28.0.4">
  <diagram name="Seite-1" id="ZZa71_Lpk9W8HisUv-Si">
    <mxGraphModel dx="901" dy="547" grid="1" gridSize="10" guides="1" tooltips="1" connect="1" arrows="1" fold="1" page="1" pageScale="1" pageWidth="827" pageHeight="1169" math="0" shadow="1">
      <root>
        <mxCell id="0" />
        <mxCell id="1" parent="0" />
        <mxCell id="nhBnWIPnY23-riueeJRQ-14" value="" style="shape=image;verticalLabelPosition=bottom;labelBackgroundColor=default;verticalAlign=top;aspect=fixed;imageAspect=0;image=data:image/png,iVBORw0KGgoAAAANSUhEUgAABWoAAARUCAYAAADvSSobAAAAOnRFWHRTb2Z0d2FyZQBNYXRwbG90bGliIHZlcnNpb24zLjEwLjEsIGh0dHBzOi8vbWF0cGxvdGxpYi5vcmcvc2/+5QAAAAlwSFlzAAAuIwAALiMBeKU/dgAAJcBJREFUeJzt2jFOW2sagOHDyB1VUlCwAxYwdNlDRE+b6VnHHfeX1s1UyHu4HRtgVuCCIqnSjcQIaaohV/KVf/s9HJ6nTPHp4/y/CX51zrZfppeJ47hdHz5jczdiE47FGXNK7tvyOWNOyX1bvhFn/Mo5sw/3bfmcMafkvn0M/h59429v/wkAAAAAgFMSagEAAAAAYkItAAAAAEBMqAUAAAAAiAm1AAAAAAAxoRYAAAAAICbUAgAAAADEhFoAAAAAgJhQCwAAAAAQE2oBAAAAAGJCLQAAAABATKgFAAAAAIgJtQAAAAAAMaEWAAAAACAm1AIAAAAAxIRaAAAAAICYUAsAAAAAEBNqAQAAAABiQi0AAAAAQEyoBQAAAACICbUAAAAAADGhFgAAAAAgJtQCAAAAAMSEWgAAAACAmFALAAAAABATagEAAAAAYkItAAAAAEBMqAUAAAAAiAm1AAAAAAAxoRYAAAAAICbUAgAAAADEhFoAAAAAgJhQCwAAAAAQE2oBAAAAAGJCLQAAAABATKgFAAAAAIgJtQAAAAAAMaEWAAAAACAm1AIAAAAAxIRaAAAAAICYUAsAAAAAEBNqAQAAAABiQi0AAAAAQEyoBQAAAACICbUAAAAAADGhFgAAAAAgJtQCAAAAAMSEWgAAAACAmFALAAAAABATagEAAAAAYkItAAAAAEBMqAUAAAAAiAm1AAAAAAAxoRYAAAAAICbUAgAAAADEhFoAAAAAgJhQCwAAAAAQE2oBAAAAAGJCLQAAAABATKgFAAAAAIgJtQAAAAAAMaEWAAAAACAm1AIAAAAAxIRaAAAAAICYUAsAAAAAEBNqAQAAAABiQi0AAAAAQOxse79+qZcAAAAAAPjIvFELAAAAABATagEAAAAAYkItAAAAAEBMqAUAAAAAiAm1AAAAAAAxoRYAAAAAICbUAgAAAADEhFoAAAAAgJhQCwAAAAAQE2oBAAAAAGJCLQAAAABATKgFAAAAAIgJtQAAAAAAMaEWAAAAACAm1AIAAAAAxIRaAAAAAICYUAsAAAAAEBNqAQAAAABiQi0AAAAAQEyoBQAAAACICbUAAAAAADGhFgAAAAAgJtQCAAAAAMSEWgAAAACAmFALAAAAABATagEAAAAAYkItAAAAAEBMqAUAAAAAiAm1AAAAAAAxoRYAAAAAICbUAgAAAADEhFoAAAAAgJhQCwAAAAAQE2oBAAAAAGJn2y/Ty7Qkt+vDZ2zuRmzC3Lkr7MM9YV/uCqe6J6/cleXzO4V9uSvswz1hX+4K+/A37dF4oxYAAAAAICbUAgAAAADEhFoAAAAAgJhQCwAAAAAQE2oBAAAAAGJCLQAAAABATKgFAAAAAIgJtQAAAAAAMaEWAAAAACAm1AIAAAAAxIRaAAAAAICYUAsAAAAAEBNqAQAAAABiQi0AAAAAQEyoBQAAAACICbUAAAAAADGhFgAAAAAgJtQCAAAAAMSEWgAAAACAmFALAAAAABATagEAAAAAYkItAAAAAEBMqAUAAAAAiAm1AAAAAAAxoRYAAAAAICbUAgAAAADEhFoAAAAAgJhQCwAAAAAQE2oBAAAAAGJCLQAAAABATKgFAAAAAIgJtQAAAAAAMaEWAAAAACAm1AIAAAAAxIRaAAAAAICYUAsAAAAAEBNqAQAAAABiQi0AAAAAQEyoBQAAAACICbUAAAAAADGhFgAAAAAgJtQCAAAAAMSEWgAAAACAmFALAAAAABATagEAAAAAYkItAAAAAEBMqAUAAAAAiAm1AAAAAAAxoRYAAAAAICbUAgAAAADEhFoAAAAAgJhQCwAAAAAQE2oBAAAAAGJCLQAAAABATKgFAAAAAIgJtQAAAAAAMaEWAAAAACAm1AIAAAAAxIRaAAAAAICYUAsAAAAAEBNqAQAAAABiQi0AAAAAQEyoBQAAAACICbUAAAAAADGhFgAAAAAgJtQCAAAAAMSEWgAAAACAmFALAAAAABA7296vX+olAAAAAAA+Mm/UAgAAAADEhFoAAAAAgJhQCwAAAAAQE2oBAAAAAGJCLQAAAABATKgFAAAAAIgJtQAAAAAAMaEWAAAAACAm1AIAAAAAxIRaAAAAAICYUAsAAAAAEBNqAQAAAABiQi0AAAAAQEyoBQAAAACICbUAAAAAADGhFgAAAAAgJtQCAAAAAMSEWgAAAACAmFALAAAAABATagEAAAAAYkItAAAAAEBMqAUAAAAAiAm1AAAAAAAxoRYAAAAAICbUAgAAAADEhFoAAAAAgJhQCwAAAAAQE2oBAAAAAGJCLQAAAABATKgFAAAAAIgJtQAAAAAAMaEWAAAAACAm1AIAAAAAxIRaAAAAAIDY2fbL9FIvsVi368NnbO5GbMKxOGNOyX1bPmfMKblvyzfijF85Z/bhvi2fM+aU3LePwd+jb3ijFgAAAAAgJtQCAAAAAMSEWgAAAACAmFALAAAAABATagEAAAAAYkItAAAAAEBMqAUAAAAAiAm1AAAAAAAxoRYAAAAAICbUAgAAAADEhFoAAAAAgJhQCwAAAAAQE2oBAAAAAGJCLQAAAABATKgFAAAAAIgJtQAAAAAAMaEWAAAAACAm1AIAAAAAxIRaAAAAAICYUAsAAAAAEBNqAQAAAABiQi0AAAAAQEyoBQAAAACICbUAAAAAADGhFgAAAAAgJtQCAAAAAMSEWgAAAACAmFALAAAAABATagEAAAAAYkItAAAAAEBMqAUAAAAAiAm1AAAAAAAxoRYAAAAAICbUAgAAAADEhFoAAAAAgJhQCwAAAAAQE2oBAAAAAGJCLQAAAABATKgFAAAAAIgJtQAAAAAAMaEWAAAAACAm1AIAAAAAxIRaAAAAAICYUAsAAAAAEBNqAQAAAABiQi0AAAAAQEyoBQAAAACICbUAAAAAADGhFgAAAAAgJtQCAAAAAMSEWgAAAACAmFALAAAAABATagEAAAAAYkItAAAAAEBMqAUAAAAAiAm1AAAAAAAxoRYAAAAAICbUAgAAAADEhFoAAAAAgJhQCwAAAAAQE2oBAAAAAGJCLQAAAABATKgFAAAAAIgJtQAAAAAAMaEWAAAAACAm1AIAAAAAxIRaAAAAAICYUAsAAAAAEFvVCwDL8vWPaVGuHi8PnvF0vRuyy/TH3Zg5zNbVP387eMbTt2lRnv5RbzBT5wNm/HvA75S/D9iD4xlxxqPO+ec0G1e/1xsslL9Tls8Z/9L2S70BsCTeqAUAAAAAiAm1AAAAAAAxoRYAAAAAICbUAgAAAADEhFoAAAAAgJhQCwAAAAAQE2oBAAAAAGJCLQAAAABATKgFAAAAAIgJtQAAAAAAMaEWAAAAACAm1AIAAAAAxIRaAAAAAICYUAsAAAAAEBNqAQAAAABiQi0AAAAAQEyoBQAAAACIreoFAJbu6vFyyJyn692QOcz7nJmx82k+buoFeBcepmV9fn5Os/Hj4qJeATjQp+fnegWAN7xRCwAAAAAQE2oBAAAAAGJCLQAAAABATKgFAAAAAIgJtQAAAAAAMaEWAAAAACAm1AIAAAAAxIRaAAAAAICYUAsAAAAAEBNqAQAAAABiQi0AAAAAQEyoBQAAAACICbUAAAAAADGhFgAAAAAgJtQCAAAAAMSEWgAAAACA2KpeAGDOnq53B8+4erwcssuoOSz7vvEnzusFIHAzaM5mJp/BhX2OPz0/1yvAu/Xj4qJeAeAovFELAAAAABATagEAAAAAYkItAAAAAEBMqAUAAAAAiAm1AAAAAAAxoRYAAAAAICbUAgAAAADEhFoAAAAAgJhQCwAAAAAQE2oBAAAAAGJCLQAAAABATKgFAAAAAIgJtQAAAAAAMaEWAAAAACAm1AIAAAAAxIRaAAAAAIDYql4AAOBPnU/zcTNgxsM0xmbAjNsBM5i3hxl9Duf0+QEAmClv1AIAAAAAxIRaAAAAAICYUAsAAAAAEBNqAQAAAABiQi0AAAAAQEyoBQAAAACICbUAAAAAADGhFgAAAAAgJtQCAAAAAMSEWgAAAACAmFALAAAAABATagEAAAAAYkItAAAAAEBMqAUAAAAAiAm1AAAAAAAxoRYAAAAAICbUAgAAAADEzrb365d6CWA5vn67m5bk6vFymoun6900B57JvJ/LnJ7JCE+jfqXcTPPwMM3HzwEzbgfMYP53ZWGfn6v14TN+XFwcPOPT8/Phi8AHNafP4PZ+wC8VgP/xRi0AAAAAQEyoBQAAAACICbUAAAAAADGhFgAAAAAgJtQCAAAAAMSEWgAAAACAmFALAAAAABATagEAAAAAYkItAAAAAEBMqAUAAAAAiAm1AAAAAAAxoRYAAAAAICbUAgAAAADEhFoAAAAAgJhQCwAAAAAQE2oBAAAAAGKregGAY7l6vKxXgHd775+ud0Pm8H9uBs15GDDjfCZ7jHwuczHquRxqac8V9vR9wIzPA2YAwF/ljVoAAAAAgJhQCwAAAAAQE2oBAAAAAGJCLQAAAABATKgFAAAAAIgJtQAAAAAAMaEWAAAAACAm1AIAAAAAxIRaAAAAAICYUAsAAAAAEBNqAQAAAABiQi0AAAAAQEyoBQAAAACICbUAAAAAADGhFgAAAAAgJtQCAAAAAMRW0+ZuWpTb9eEzlvZM+DV3ZbauHi/rFWbJc3nLM5n3s3263g3ZhV+4GTBjM2DG+TTGw0yeyYg9Rhnx88A79H3AjNXl4f+Hfd8d/n/Y54Mn8C4s7Tuh78mc6p68clfe8EYtAAAAAEBMqAUAAAAAiAm1AAAAAAAxoRYAAAAAICbUAgAAAADEhFoAAAAAgJhQCwAAAAAQE2oBAAAAAGJCLQAAAABATKgFAAAAAIgJtQAAAAAAMaEWAAAAACAm1AIAAAAAxIRaAAAAAICYUAsAAAAAEBNqAQAAAABiQi0AAAAAQGxVLwAsy9XjZb0CsKTfB//ajViFX7kdMGMzzcdmYc8W3pnvg+asLufxt+SIPb7vxvwf9nnIFADeA2/UAgAAAADEhFoAAAAAgJhQCwAAAAAQE2oBAAAAAGJCLQAAAABATKgFAAAAAIgJtQAAAAAAMaEWAAAAACAm1AIAAAAAxIRaAAAAAICYUAsAAAAAEBNqAQAAAABiQi0AAAAAQEyoBQAAAACICbUAAAAAADGhFgAAAAAgtqoXAAAA4H37PGjO993u4Bmry8uDZ/xnwB6jngkAH4c3agEAAAAAYkItAAAAAEBMqAUAAAAAiAm1AAAAAAAxoRYAAAAAICbUAgAAAADEhFoAAAAAgJhQCwAAAAAQE2oBAAAAAGJCLQAAAABATKgFAAAAAIgJtQAAAAAAMaEWAAAAACAm1AIAAAAAxIRaAAAAAICYUAsAAAAAEFvVCwAA8E6dT/NxM2DGw4AZo+aM+HngHfo8YMb33W4WewDAX+WNWgAAAACAmFALAAAAABATagEAAAAAYkItAAAAAEBMqAUAAAAAiAm1AAAAAAAxoRYAAAAAICbUAgAAAADEhFoAAAAAgJhQCwAAAAAQE2oBAAAAAGJCLQAAAABATKgFAAAAAIgJtQAAAAAAMaEWAAAAACAm1AIAAAAAxFbT7breYX48E/blrvzCb/UCAOzjYZqPm3qBhZ6P58oH9blegI/Fd8K3PBP25a684Y1aAAAAAICYUAsAAAAAEBNqAQAAAABiQi0AAAAAQEyoBQAAAACICbUAAAAAADGhFgAAAAAgJtQCAAAAAMSEWgAAAACAmFALAAAAABATagEAAAAAYkItAAAAAEBMqAUAAAAAiAm1AAAAAAAxoRYAAAAAICbUAgAAAADEhFoAAAAAgNiqXgAA4OgeBsy4GTBjM41xPs3DiGcyJ6N+ns1MznjEvV/iOQMAzJQ3agEAAAAAYkItAAAAAEBMqAUAAAAAiAm1AAAAAAAxoRYAAAAAICbUAgAAAADEhFoAAAAAgJhQCwAAAAAQE2oBAAAAAGJCLQAAAABATKgFAAAAAIgJtQAAAAAAMaEWAAAAACAm1AIAAAAAxIRaAAAAAICYUAsAAAAAEFtNm7t6h+W6XR8+w/nMmzN+4+nbNBtXj5f1CvBuPV3vplmY06/IzbQsN/UCC3Y7YMaI+3Y+jfEwaA7AEi3s+9yivmu/cj7zpqm84Y1aAAAAAICYUAsAAAAAEBNqAQAAAABiQi0AAAAAQEyoBQAAAACICbUAAAAAADGhFgAAAAAgJtQCAAAAAMSEWgAAAACAmFALAAAAABATagEAAAAAYkItAAAAAEBMqAUAAAAAiAm1AAAAAAAxoRYAAAAAICbUAgAAAADEVvUCAMfydL2b5uDq8XJRPw/HO2dn/As/B805n8mMUW7qBTi62wEzNtMY5wv7fQAAMFPeqAUAAAAAiAm1AAAAAAAxoRYAAAAAICbUAgAAAADEhFoAAAAAgJhQCwAAAAAQE2oBAAAAAGJCLQAAAABATKgFAAAAAIgJtQAAAAAAMaEWAAAAACAm1AIAAAAAxIRaAAAAAICYUAsAAAAAEBNqAQAAAABiQi0AAAAAQEyoBQAAAACIreoFAACO7ueAGecDZsApnS/sM7gwPy4u6hUAgJnxRi0AAAAAQEyoBQAAAACICbUAAAAAADGhFgAAAAAgJtQCAAAAAMSEWgAAAACAmFALAAAAABATagEAAAAAYkItAAAAAEBMqAUAAAAAiAm1AAAAAAAxoRYAAAAAICbUAgAAAADEhFoAAAAAgJhQCwAAAAAQE2oBAAAAAGKregEAgHfh54AZ59MYD4PmwKnu/sJ8en6uVwAAFsgbtQAAAAAAMaEWAAAAACAm1AIAAAAAxIRaAAAAAICYUAsAAAAAEBNqAQAAAABiQi0AAAAAQEyoBQAAAACICbUAAAAAADGhFgAAAAAgJtQCAAAAAMSEWgAAAACAmFALAAAAABATagEAAAAAYkItAAAAAEBMqAUAAAAAiK3qBQCW7ul6V6/ACTjn47j6vd4AAADgNLxRCwAAAAAQE2oBAAAAAGJCLQAAAABATKgFAAAAAIgJtQAAAAAAMaEWAAAAACAm1AIAAAAAxIRaAAAAAICYUAsAAAAAEBNqAQAAAABiQi0AAAAAQEyoBQAAAACICbUAAAAAADGhFgAAAAAgJtQCAAAAAMSEWgAAAACAmFALAAAAABATagEAAAAAYkItAAAAAEBMqAUAAAAAiAm1AAAAAAAxoRYAAAAAICbUAgAAAADEhFoAAAAAgJhQCwAAAAAQE2oBAAAAAGJCLQAAAABATKgFAAAAAIgJtQAAAAAAMaEWAAAAACAm1AIAAAAAxIRaAAAAAICYUAsAAAAAEBNqAQAAAABiQi0AAAAAQEyoBQAAAACICbUAAAAAADGhFgAAAAAgJtQCAAAAAMSEWgAAAACAmFALAAAAABATagEAAAAAYkItAAAAAEBMqAUAAAAAiAm1AAAAAAAxoRYAAAAAICbUAgAAAADEhFoAAAAAgJhQCwAAAAAQE2oBAAAAAGJCLQAAAABATKgFAAAAAIgJtQAAAAAAMaEWAAAAACAm1AIAAAAAxIRaAAAAAICYUAsAAAAAEBNqAQAAAABiQi0AAAAAQEyoBQAAAACICbUAAAAAADGhFgAAAAAgJtQCAAAAAMSEWgAAAACAmFALAAAAABATagEAAAAAYkItAAAAAEBMqAUAAAAAiAm1AAAAAACxs+39+qVeAliOr9/u6hUAAABOYnu/rlcAFsQbtQAAAAAAMaEWAAAAACAm1AIAAAAAxIRaAAAAAICYUAsAAAAAEBNqAQAAAABiQi0AAAAAQEyoBQAAAACICbUAAAAAADGhFgAAAAAgJtQCAAAAAMSEWgAAAACAmFALAAAAABATagEAAAAAYkItAAAAAEBMqAUAAAAAiAm1AAAAAAAxoRYAAAAAICbUAgAAAADEhFoAAAAAgJhQCwAAAAAQE2oBAAAAAGJCLQAAAABATKgFAAAAAIgJtQAAAAAAMaEWAAAAACAm1AIAAAAAxIRaAAAAAICYUAsAAAAAEBNqAQAAAABiQi0AAAAAQEyoBQAAAACICbUAAAAAALHVtLmbFuV2ffiMpT0Tfs1dAQAA4BBL+07oezKnuiev3JU3vFELAAAAABATagEAAAAAYkItAAAAAEBMqAUAAAAAiAm1AAAAAAAxoRYAAAAAICbUAgAAAADEhFoAAAAAgJhQCwAAAAAQE2oBAAAAAGJCLQAAAABATKgFAAAAAIgJtQAAAAAAMaEWAAAAACAm1AIAAAAAxIRaAAAAAICYUAsAAAAAEBNqAQAAAABiQi0AAAAAQEyoBQAAAACICbUAAAAAADGhFgAAAAAgJtQCAAAAAMSEWgAAAACAmFALAAAAABATagEAAAAAYkItAAAAAEBMqAUAAAAAiAm1AAAAAAAxoRYAAAAAICbUAgAAAADEhFoAAAAAgJhQCwAAAAAQE2oBAAAAAGJCLQAAAABATKgFAAAAAIgJtQAAAAAAMaEWAAAAACAm1AIAAAAAxIRaAAAAAICYUAsAAAAAEBNqAQAAAABiQi0AAAAAQEyoBQAAAACICbUAAAAAADGhFgAAAAAgJtQCAAAAAMSEWgAAAACAmFALAAAAABATagEAAAAAYkItAAAAAEBMqAUAAAAAiAm1AAAAAAAxoRYAAAAAICbUAgAAAADEhFoAAAAAgJhQCwAAAAAQE2oBAAAAAGJCLQAAAABATKgFAAAAAIgJtQAAAAAAMaEWAAAAACAm1AIAAAAAxIRaAAAAAICYUAsAAAAAEBNqAQAAAABiQi0AAAAAQEyoBQAAAACICbUAAAAAALGz7f36pV4CWI6v3+7qFQAAAE5ie7+uVwAWxBu1AAAAAAAxoRYAAAAAICbUAgAAAADEhFoAAAAAgJhQCwAAAAAQE2oBAAAAAGJCLQAAAABATKgFAAAAAIgJtQAAAAAAMaEWAAAAACAm1AIAAAAAxIRaAAAAAICYUAsAAAAAEBNqAQAAAABiQi0AAAAAQEyoBQAAAACICbUAAAAAADGhFgAAAAAgJtQCAAAAAMSEWgAAAACAmFALAAAAABATagEAAAAAYkItAAAAAEBMqAUAAAAAiAm1AAAAAAAxoRYAAAAAICbUAgAAAADEhFoAAAAAgJhQCwAAAAAQE2oBAAAAAGJCLQAAAABATKgFAAAAAIgJtQAAAAAAsdW0uat3WK7b9eEznM+8OWMAAICPy/e5+X7XfuV85k1TecMbtQAAAAAAMaEWAAAAACAm1AIAAAAAxIRaAAAAAICYUAsAAAAAEBNqAQAAAABiQi0AAAAAQEyoBQAAAACICbUAAAAAADGhFgAAAAAgJtQCAAAAAMSEWgAAAACAmFALAAAAABATagEAAAAAYkItAAAAAEBMqAUAAAAAiAm1AAAAAAAxoRYAAAAAICbUAgAAAADEhFoAAAAAgJhQCwAAAAAQE2oBAAAAAGJCLQAAAABATKgFAAAAAIgJtQAAAAAAMaEWAAAAACAm1AIAAAAAxIRaAAAAAICYUAsAAAAAEBNqAQAAAABiQi0AAAAAQEyoBQAAAACICbUAAAAAADGhFgAAAAAgJtQCAAAAAMSEWgAAAACAmFALAAAAABATagEAAAAAYkItAAAAAEBMqAUAAAAAiAm1AAAAAAAxoRYAAAAAICbUAgAAAADEhFoAAAAAgJhQCwAAAAAQE2oBAAAAAGJCLQAAAABATKgFAAAAAIgJtQAAAAAAMaEWAAAAACAm1AIAAAAAxIRaAAAAAICYUAsAAAAAEBNqAQAAAABiQi0AAAAAQEyoBQAAAACICbUAAAAAADGhFgAAAAAgJtQCAAAAAMSEWgAAAACAmFALAAAAABATagEAAAAAYkItAAAAAEBMqAUAAAAAiAm1AAAAAAAxoRYAAAAAICbUAgAAAADEhFoAAAAAgJhQCwAAAAAQW9ULAMuy/VJvsGC368NnbO5GbMKxOGNOyX1bvhFn/Mo5sw/3bfmcMcDReaMWAAAAACAm1AIAAAAAxIRaAAAAAICYUAsAAAAAEBNqAQAAAABiQi0AAAAAQEyoBQAAAACICbUAAAAAADGhFgAAAAAgJtQCAAAAAMSEWgAAAACAmFALAAAAABATagEAAAAAYkItAAAAAEBMqAUAAAAAiAm1AAAAAAAxoRYAAAAAICbUAgAAAADEhFoAAAAAgJhQCwAAAAAQE2oBAAAAAGJCLQAAAABATKgFAAAAAIgJtQAAAAAAMaEWAAAAACAm1AIAAAAAxIRaAAAAAICYUAsAAAAAEBNqAQAAAABiQi0AAAAAQEyoBQAAAACICbUAAAAAADGhFgAAAAAgJtQCAAAAAMSEWgAAAACAmFALAAAAABATagEAAAAAYkItAAAAAEBMqAUAAAAAiAm1AAAAAAAxoRYAAAAAICbUAgAAAADEhFoAAAAAgJhQCwAAAAAQE2oBAAAAAGJCLQAAAABATKgFAAAAAIgJtQAAAAAAMaEWAAAAACAm1AIAAAAAxIRaAAAAAICYUAsAAAAAEBNqAQAAAABiQi0AAAAAQEyoBQAAAACICbUAAAAAADGhFgAAAAAgJtQCAAAAAMSEWgAAAACAmFALAAAAABATagEAAAAAYkItAAAAAEBMqAUAAAAAiAm1AAAAAAAxoRYAAAAAICbUAgAAAADEhFoAAAAAgJhQCwAAAAAQO9ver1/qJQAAAAAAPjJv1AIAAAAAxIRaAAAAAICYUAsAAAAAEBNqAQAAAABiQi0AAAAAQEyoBQAAAACICbUAAAAAADGhFgAAAAAgJtQCAAAAAMSEWgAAAACAmFALAAAAABATagEAAAAAYkItAAAAAEBMqAUAAAAAiAm1AAAAAAAxoRYAAAAAICbUAgAAAADEhFoAAAAAgJhQCwAAAAAQE2oBAAAAAGJCLQAAAABATKgFAAAAAIgJtQAAAAAAMaEWAAAAACAm1AIAAAAAxIRaAAAAAICYUAsAAAAAEBNqAQAAAABiQi0AAAAAQEyoBQAAAACICbUAAAAAADGhFgAAAAAgJtQCAAAAAMSEWgAAAACA2Nn2y/QyLcnt+vAZm7sRmzB37gr7cE/Yl7vCqe7JK3dl+fxOYV/uCvtwT9iXu8I+/E17NN6oBQAAAACICbUAAAAAADGhFgAAAAAgJtQCAAAAAMSEWgAAAACAmFALAAAAABATagEAAAAAYkItAAAAAEBMqAUAAAAAiAm1AAAAAAAxoRYAAAAAICbUAgAAAADEhFoAAAAAgJhQCwAAAAAQE2oBAAAAAGJCLQAAAABATKgFAAAAAIgJtQAAAAAAMaEWAAAAACAm1AIAAAAAxIRaAAAAAICYUAsAAAAAEBNqAQAAAABiQi0AAAAAQEyoBQAAAACICbUAAAAAADGhFgAAAAAgJtQCAAAAAMSEWgAAAACAmFALAAAAABATagEAAAAAYkItAAAAAEBMqAUAAAAAiAm1AAAAAAAxoRYAAAAAICbUAgAAAADEhFoAAAAAgJhQCwAAAAAQE2oBAAAAAGJCLQAAAABATKgFAAAAAIgJtQAAAAAAMaEWAAAAACAm1AIAAAAAxIRaAAAAAICYUAsAAAAAEBNqAQAAAABiQi0AAAAAQEyoBQAAAACICbUAAAAAADGhFgAAAAAgJtQCAAAAAMSEWgAAAACAmFALAAAAABATagEAAAAAYkItAAAAAEBMqAUAAAAAiAm1AAAAAAAxoRYAAAAAICbUAgAAAADEhFoAAAAAgJhQCwAAAAAQE2oBAAAAAGJCLQAAAABATKgFAAAAAIgJtQAAAAAAMaEWAAAAACAm1AIAAAAAxM629+uXegkAAAAAgI/MG7UAAAAAADGhFgAAAAAgJtQCAAAAAMSEWgAAAACAmFALAAAAABATagEAAAAAYkItAAAAAEBMqAUAAAAAiAm1AAAAAAAxoRYAAAAAICbUAgAAAADEhFoAAAAAgJhQCwAAAAAQE2oBAAAAAGJCLQAAAABATKgFAAAAAIgJtQAAAAAAMaEWAAAAACAm1AIAAAAAxIRaAAAAAICYUAsAAAAAEBNqAQAAAABiQi0AAAAAQEyoBQAAAACICbUAAAAAADGhFgAAAAAgJtQCAAAAAMSEWgAAAACAmFALAAAAABATagEAAAAAYkItAAAAAEBMqAUAAAAAiAm1AAAAAAAxoRYAAAAAIHa2/TK91Ess1u368BmbuxGbcCzOmFNy35bPGXNK7tvyjTjjV86Zfbhvy+eMOSX37WPw9+gb3qgFAAAAAIgJtQAAAAAAMaEWAAAAACAm1AIAAAAAxIRaAAAAAICYUAsAAAAAEBNqAQAAAABiQi0AAAAAQEyoBQAAAACICbUAAAAAADGhFgAAAAAgJtQCAAAAAMSEWgAAAACAmFALAAAAABATagEAAAAAYkItAAAAAEBMqAUAAAAAiAm1AAAAAAAxoRYAAAAAICbUAgAAAADEhFoAAAAAgJhQCwAAAAAQE2oBAAAAAGJCLQAAAABATKgFAAAAAIgJtQAAAAAAMaEWAAAAACAm1AIAAAAAxIRaAAAAAICYUAsAAAAAEBNqAQAAAABiQi0AAAAAQEyoBQAAAACICbUAAAAAADGhFgAAAAAgJtQCAAAAAMSEWgAAAACAmFALAAAAABATagEAAAAAYkItAAAAAEBMqAUAAAAAiAm1AAAAAAAxoRYAAAAAICbUAgAAAADEhFoAAAAAgJhQCwAAAAAQE2oBAAAAAGJCLQAAAABATKgFAAAAAIgJtQAAAAAAMaEWAAAAACAm1AIAAAAAxIRaAAAAAICYUAsAAAAAEBNqAQAAAABiQi0AAAAAQEyoBQAAAACICbUAAAAAADGhFgAAAAAgJtQCAAAAAMSEWgAAAACAmFALAAAAABATagEAAAAAYkItAAAAAEBMqAUAAAAAiAm1AAAAAAAxoRYAAAAAICbUAgAAAABMrf8CWsha1Ox2t4wAAAAASUVORK5CYII=;" vertex="1" parent="1">
          <mxGeometry x="3600" y="1330" width="1000" height="799.42" as="geometry" />
        </mxCell>
        <mxCell id="nhBnWIPnY23-riueeJRQ-30" value="&lt;font style=&quot;font-size: 30px;&quot;&gt;Static Layer&lt;/font&gt;" style="swimlane;horizontal=0;whiteSpace=wrap;html=1;startSize=51;strokeWidth=2;perimeterSpacing=0;opacity=60;fontColor=#4D4D4D;fillColor=none;" vertex="1" parent="1">
          <mxGeometry x="4689" y="1629.42" width="661" height="500" as="geometry" />
        </mxCell>
        <mxCell id="nhBnWIPnY23-riueeJRQ-15" value="FLOOR" style="ellipse;whiteSpace=wrap;html=1;aspect=fixed;fontStyle=1;fontSize=30;strokeWidth=4;fillColor=#f5f5f5;strokeColor=#666666;fontColor=#333333;" vertex="1" parent="nhBnWIPnY23-riueeJRQ-30">
          <mxGeometry x="490" y="80" width="140" height="140" as="geometry" />
        </mxCell>
        <mxCell id="nhBnWIPnY23-riueeJRQ-16" value="FLOOR" style="ellipse;whiteSpace=wrap;html=1;aspect=fixed;fontStyle=1;fontSize=30;strokeWidth=4;fillColor=#f5f5f5;strokeColor=#666666;fontColor=#333333;" vertex="1" parent="nhBnWIPnY23-riueeJRQ-30">
          <mxGeometry x="290" y="80" width="140" height="140" as="geometry" />
        </mxCell>
        <mxCell id="nhBnWIPnY23-riueeJRQ-41" style="edgeStyle=orthogonalEdgeStyle;rounded=0;orthogonalLoop=1;jettySize=auto;html=1;exitX=1;exitY=0.5;exitDx=0;exitDy=0;entryX=0;entryY=0.5;entryDx=0;entryDy=0;strokeWidth=3;startArrow=classic;startFill=1;" edge="1" parent="nhBnWIPnY23-riueeJRQ-30" source="nhBnWIPnY23-riueeJRQ-17" target="nhBnWIPnY23-riueeJRQ-16">
          <mxGeometry relative="1" as="geometry" />
        </mxCell>
        <mxCell id="nhBnWIPnY23-riueeJRQ-17" value="FLOOR" style="ellipse;whiteSpace=wrap;html=1;aspect=fixed;fontStyle=1;fontSize=30;strokeWidth=4;fillColor=#f5f5f5;strokeColor=#666666;fontColor=#333333;" vertex="1" parent="nhBnWIPnY23-riueeJRQ-30">
          <mxGeometry x="90" y="80" width="140" height="140" as="geometry" />
        </mxCell>
        <mxCell id="nhBnWIPnY23-riueeJRQ-46" style="edgeStyle=orthogonalEdgeStyle;rounded=0;orthogonalLoop=1;jettySize=auto;html=1;exitX=0.5;exitY=0;exitDx=0;exitDy=0;strokeWidth=3;startArrow=classic;startFill=1;" edge="1" parent="nhBnWIPnY23-riueeJRQ-30" source="nhBnWIPnY23-riueeJRQ-18">
          <mxGeometry relative="1" as="geometry">
            <mxPoint x="160" y="220.57999999999993" as="targetPoint" />
          </mxGeometry>
        </mxCell>
        <mxCell id="nhBnWIPnY23-riueeJRQ-47" style="edgeStyle=orthogonalEdgeStyle;rounded=0;orthogonalLoop=1;jettySize=auto;html=1;exitX=1;exitY=0.5;exitDx=0;exitDy=0;entryX=0;entryY=0.5;entryDx=0;entryDy=0;strokeWidth=3;startArrow=classic;startFill=1;" edge="1" parent="nhBnWIPnY23-riueeJRQ-30" source="nhBnWIPnY23-riueeJRQ-18" target="nhBnWIPnY23-riueeJRQ-19">
          <mxGeometry relative="1" as="geometry" />
        </mxCell>
        <mxCell id="nhBnWIPnY23-riueeJRQ-18" value="FLOOR" style="ellipse;whiteSpace=wrap;html=1;aspect=fixed;fontStyle=1;fontSize=30;strokeWidth=4;fillColor=#f5f5f5;strokeColor=#666666;fontColor=#333333;" vertex="1" parent="nhBnWIPnY23-riueeJRQ-30">
          <mxGeometry x="90" y="280" width="140" height="140" as="geometry" />
        </mxCell>
        <mxCell id="nhBnWIPnY23-riueeJRQ-43" style="edgeStyle=orthogonalEdgeStyle;rounded=0;orthogonalLoop=1;jettySize=auto;html=1;exitX=1;exitY=0.5;exitDx=0;exitDy=0;strokeWidth=3;startArrow=classic;startFill=1;" edge="1" parent="nhBnWIPnY23-riueeJRQ-30" source="nhBnWIPnY23-riueeJRQ-19" target="nhBnWIPnY23-riueeJRQ-20">
          <mxGeometry relative="1" as="geometry" />
        </mxCell>
        <mxCell id="nhBnWIPnY23-riueeJRQ-45" style="edgeStyle=orthogonalEdgeStyle;rounded=0;orthogonalLoop=1;jettySize=auto;html=1;exitX=0.5;exitY=0;exitDx=0;exitDy=0;strokeWidth=3;startArrow=classic;startFill=1;" edge="1" parent="nhBnWIPnY23-riueeJRQ-30" source="nhBnWIPnY23-riueeJRQ-19">
          <mxGeometry relative="1" as="geometry">
            <mxPoint x="360" y="220.57999999999993" as="targetPoint" />
          </mxGeometry>
        </mxCell>
        <mxCell id="nhBnWIPnY23-riueeJRQ-19" value="FLOOR" style="ellipse;whiteSpace=wrap;html=1;aspect=fixed;fontStyle=1;fontSize=30;strokeWidth=4;fillColor=#f5f5f5;strokeColor=#666666;fontColor=#333333;" vertex="1" parent="nhBnWIPnY23-riueeJRQ-30">
          <mxGeometry x="290" y="280" width="140" height="140" as="geometry" />
        </mxCell>
        <mxCell id="nhBnWIPnY23-riueeJRQ-44" style="edgeStyle=orthogonalEdgeStyle;rounded=0;orthogonalLoop=1;jettySize=auto;html=1;exitX=0.5;exitY=0;exitDx=0;exitDy=0;strokeWidth=3;startArrow=classic;startFill=1;" edge="1" parent="nhBnWIPnY23-riueeJRQ-30" source="nhBnWIPnY23-riueeJRQ-20" target="nhBnWIPnY23-riueeJRQ-15">
          <mxGeometry relative="1" as="geometry" />
        </mxCell>
        <mxCell id="nhBnWIPnY23-riueeJRQ-20" value="FLOOR" style="ellipse;whiteSpace=wrap;html=1;aspect=fixed;fontStyle=1;fontSize=30;strokeWidth=4;fillColor=#f5f5f5;strokeColor=#666666;fontColor=#333333;" vertex="1" parent="nhBnWIPnY23-riueeJRQ-30">
          <mxGeometry x="490" y="280" width="140" height="140" as="geometry" />
        </mxCell>
        <mxCell id="nhBnWIPnY23-riueeJRQ-42" style="edgeStyle=orthogonalEdgeStyle;rounded=0;orthogonalLoop=1;jettySize=auto;html=1;exitX=1;exitY=0.5;exitDx=0;exitDy=0;entryX=-0.021;entryY=0.504;entryDx=0;entryDy=0;entryPerimeter=0;strokeWidth=3;startArrow=classic;startFill=1;" edge="1" parent="nhBnWIPnY23-riueeJRQ-30" source="nhBnWIPnY23-riueeJRQ-16" target="nhBnWIPnY23-riueeJRQ-15">
          <mxGeometry relative="1" as="geometry" />
        </mxCell>
        <mxCell id="nhBnWIPnY23-riueeJRQ-31" value="&lt;font style=&quot;font-size: 30px;&quot;&gt;Dynamic Layer&lt;/font&gt;" style="swimlane;horizontal=0;whiteSpace=wrap;html=1;startSize=51;strokeWidth=2;opacity=60;fontColor=#4D4D4D;fillColor=none;" vertex="1" parent="1">
          <mxGeometry x="4689" y="1330" width="661" height="265" as="geometry" />
        </mxCell>
        <mxCell id="nhBnWIPnY23-riueeJRQ-21" value="BOX" style="ellipse;whiteSpace=wrap;html=1;aspect=fixed;fontStyle=1;fontSize=30;strokeWidth=4;fillColor=#ffe6cc;strokeColor=#d79b00;fontColor=#CC6600;gradientColor=none;" vertex="1" parent="nhBnWIPnY23-riueeJRQ-31">
          <mxGeometry x="290" y="62.5" width="140" height="140" as="geometry" />
        </mxCell>
        <mxCell id="nhBnWIPnY23-riueeJRQ-22" value="&lt;font style=&quot;color: rgb(0, 102, 0);&quot;&gt;PLAYER&lt;/font&gt;" style="ellipse;whiteSpace=wrap;html=1;aspect=fixed;fontStyle=1;fontSize=30;strokeWidth=4;fillColor=#d5e8d4;strokeColor=#82b366;" vertex="1" parent="nhBnWIPnY23-riueeJRQ-31">
          <mxGeometry x="90" y="62.5" width="140" height="140" as="geometry" />
        </mxCell>
        <mxCell id="nhBnWIPnY23-riueeJRQ-39" style="edgeStyle=orthogonalEdgeStyle;rounded=0;orthogonalLoop=1;jettySize=auto;html=1;exitX=0.5;exitY=1;exitDx=0;exitDy=0;entryX=0.5;entryY=0;entryDx=0;entryDy=0;strokeWidth=3;" edge="1" parent="1" source="nhBnWIPnY23-riueeJRQ-22" target="nhBnWIPnY23-riueeJRQ-17">
          <mxGeometry relative="1" as="geometry" />
        </mxCell>
        <mxCell id="nhBnWIPnY23-riueeJRQ-40" style="edgeStyle=orthogonalEdgeStyle;rounded=0;orthogonalLoop=1;jettySize=auto;html=1;exitX=0.5;exitY=1;exitDx=0;exitDy=0;entryX=0.5;entryY=0;entryDx=0;entryDy=0;strokeWidth=3;" edge="1" parent="1" source="nhBnWIPnY23-riueeJRQ-21" target="nhBnWIPnY23-riueeJRQ-16">
          <mxGeometry relative="1" as="geometry" />
        </mxCell>
        <mxCell id="nhBnWIPnY23-riueeJRQ-50" value="Text" style="text;html=1;align=center;verticalAlign=middle;whiteSpace=wrap;rounded=0;" vertex="1" parent="1">
          <mxGeometry x="4100" y="1720" width="60" height="30" as="geometry" />
        </mxCell>
      </root>
    </mxGraphModel>
  </diagram>
</mxfile>
